<?xml version="1.0" encoding="UTF-8"?>
<svg xmlns="http://www.w3.org/2000/svg" xmlns:xlink="http://www.w3.org/1999/xlink" width="551.991" height="264.769" viewBox="0 0 551.991 264.769" xmlns:c2pa="http://c2pa.org/manifest"><metadata><c2pa:manifest>AAAWgmp1bWIAAAAeanVtZGMycGEAEQAQgAAAqgA4m3EDYzJwYQAAABZcanVtYgAAAEdqdW1kYzJtYQARABCAAACqADibcQN1cm46YzJwYToyM2JkYjUwZC1jNzAzLTQwODMtYTE3ZC0xOTE0NTY0Y2E3NWIAAAADl2p1bWIAAAApanVtZGMyYXMAEQAQgAAAqgA4m3EDYzJwYS5hc3NlcnRpb25zAAAAALxqdW1iAAAARGp1bWRjYm9yABEAEIAAAKoAOJtxE2MycGEuaW5ncmVkaWVudC52MwAAAAAYYzJzaPhMpuj1vya0GZBjbNQpKYoAAABwY2JvcqNpZGM6Zm9ybWF0bWltYWdlL3N2Zyt4bWxqaW5zdGFuY2VJRHgseG1wOmlpZDpjZDMyOTMyMC1hMDI0LTRiNTQtODMzZS01OTEwOTczMTQ2ZDlscmVsYXRpb25zaGlwaHBhcmVudE9mAAAB4mp1bWIAAABBanVtZGNib3IAEQAQgAAAqgA4m3ETYzJwYS5hY3Rpb25zLnYyAAAAABhjMnNoerTLxEuGBo3yGnUM5PQpwAAAAZljYm9yomdhY3Rpb25zgqJmYWN0aW9ua2MycGEub3BlbmVkanBhcmFtZXRlcnOha2luZ3JlZGllbnRzgaJjdXJseC1zZWxmI2p1bWJmPWMycGEuYXNzZXJ0aW9ucy9jMnBhLmluZ3JlZGllbnQudjNkaGFzaFggz7DTApCRMlt0pCTk3raISK25cyICPIwSFg/tq1T/+h+kZmFjdGlvbngdY29tLmFudGhyb3BpYy5jbGF1ZGUucHJvdmlkZWRqcGFyYW1ldGVyc6F4H2NvbS5hbnRocm9waWMub3JpZ2luLWNvbmZpZGVuY2VndW5rbm93bmtkZXNjcmlwdGlvbnhmQ2xhdWRlIHByb3ZpZGVkIHRoaXMgZmlsZSBhdCB0aGUgcmVxdWVzdCBvZiBhIHVzZXIgYW5kIG1heSBoYXZlIGNyZWF0ZWQgb3IgbW9kaWZpZWQgdGhlIGZpbGUgY29udGVudHMubXNvZnR3YXJlQWdlbnShZG5hbWVmQ2xhdWRlcmFsbEFjdGlvbnNJbmNsdWRlZPUAAADIanVtYgAAAEBqdW1kY2JvcgARABCAAACqADibcRNjMnBhLmhhc2guZGF0YQAAAAAYYzJzaMpatUxkQxY3gdCeK5vFD2cAAACAY2JvcqVjYWxnZnNoYTI1NmNwYWRNAAAAAAAAAAAAAAAAAGRoYXNoWCCSFWwbJkpxSyOTlpsu+8ZAsjHOGu7exmIbJnyZPvRlfmRuYW1lbmp1bWJmIG1hbmlmZXN0amV4Y2x1c2lvbnOBomVzdGFydBj4Zmxlbmd0aBkeBAAAAj5qdW1iAAAAJ2p1bWRjMmNsABEAEIAAAKoAOJtxA2MycGEuY2xhaW0udjIAAAACD2Nib3KlY2FsZ2ZzaGEyNTZpc2lnbmF0dXJleE1zZWxmI2p1bWJmPS9jMnBhL3VybjpjMnBhOjIzYmRiNTBkLWM3MDMtNDA4My1hMTdkLTE5MTQ1NjRjYTc1Yi9jMnBhLnNpZ25hdHVyZWppbnN0YW5jZUlEeCx4bXA6aWlkOmJmYjg4NjE1LTU0OWItNDJhYy05NjE4LWNiZjg3NzlhMzg0OHJjcmVhdGVkX2Fzc2VydGlvbnODomN1cmx4LXNlbGYjanVtYmY9YzJwYS5hc3NlcnRpb25zL2MycGEuaW5ncmVkaWVudC52M2RoYXNoWCDPsNMCkJEyW3SkJOTetohIrblzIgI8jBIWD+2rVP/6H6JjdXJseCpzZWxmI2p1bWJmPWMycGEuYXNzZXJ0aW9ucy9jMnBhLmFjdGlvbnMudjJkaGFzaFggOkr8HTM3Fhjq2I2/IAakvujajyOMRI4uHGKI1vjqgT+iY3VybHgpc2VsZiNqdW1iZj1jMnBhLmFzc2VydGlvbnMvYzJwYS5oYXNoLmRhdGFkaGFzaFggFUK4GEv4g44NF7xx3tps18gCr6YH5Ar4igxt7t+uAAx0Y2xhaW1fZ2VuZXJhdG9yX2luZm+jZG5hbWVvQW50aHJvcGljIEZpbGVzZ3ZlcnNpb25lMS4wLjBrc3BlY1ZlcnNpb25lMi40LjAAABA4anVtYgAAAChqdW1kYzJjcwARABCAAACqADibcQNjMnBhLnNpZ25hdHVyZQAAABAIY2JvctKEWQISogEmGCFZAgowggIGMIIBjaADAgECAhRA5aAK7sI50L64g/oGQgU9Z1UTADAKBggqhkjOPQQDAzBJMRcwFQYDVQQKEw5BbnRocm9waWMsIFBCQzEuMCwGA1UEAxMlQW50aHJvcGljIENvbnRlbnQgQ3JlZGVudGlhbHMgUm9vdCBDQTAeFw0yNjA4MDcxODQzNTZaFw0yODA4MDYxOTQzNTZaMEQxFzAVBgNVBAoTDkFudGhyb3BpYywgUEJDMSkwJwYDVQQDEyBBbnRocm9waWMgQ2xhdWRlIENvbnRlbnQgU2lnbmluZzBZMBMGByqGSM49AgEGCCqGSM49AwEHA0IABJh6CmvLUBgFFNU0vUKlOVtE6djd17L5SuwX0LemFisBM3dkd/3cyjxFA3Qo5S46fX0/ihY0VZ7mfb9KF703t5OjWDBWMA4GA1UdDwEB/wQEAwIHgDAVBgNVHSUEDjAMBgorBgEEAYPoXgIBMAwGA1UdEwEB/wQCMAAwHwYDVR0jBBgwFoAUzlHiBIFOZFsj+OPEz5o+nMHXXMIwCgYIKoZIzj0EAwMDZwAwZAIwMXMdFJ4BetLLVY7ORuE9noqbbAZOZn/aArXyTwFAZfKrPzxF2vPoJNf1+UCdg1XGAjBwX1zd9WGqYkqmL5SFqw1QySjr1zJfpJM9+1rdDwSPLMOPOjKuiXjoU/pUUeG9RwmhY3BhZFkNngAAAAAAAAAAAAAAAAAAAAAAAAAAAAAAAAAAAAAAAAAAAAAAAAAAAAAAAAAAAAAAAAAAAAAAAAAAAAAAAAAAAAAAAAAAAAAAAAAAAAAAAAAAAAAAAAAAAAAAAAAAAAAAAAAAAAAAAAAAAAAAAAAAAAAAAAAAAAAAAAAAAAAAAAAAAAAAAAAAAAAAAAAAAAAAAAAAAAAAAAAAAAAAAAAAAAAAAAAAAAAAAAAAAAAAAAAAAAAAAAAAAAAAAAAAAAAAAAAAAAAAAAAAAAAAAAAAAAAAAAAAAAAAAAAAAAAAAAAAAAAAAAAAAAAAAAAAAAAAAAAAAAAAAAAAAAAAAAAAAAAAAAAAAAAAAAAAAAAAAAAAAAAAAAAAAAAAAAAAAAAAAAAAAAAAAAAAAAAAAAAAAAAAAAAAAAAAAAAAAAAAAAAAAAAAAAAAAAAAAAAAAAAAAAAAAAAAAAAAAAAAAAAAAAAAAAAAAAAAAAAAAAAAAAAAAAAAAAAAAAAAAAAAAAAAAAAAAAAAAAAAAAAAAAAAAAAAAAAAAAAAAAAAAAAAAAAAAAAAAAAAAAAAAAAAAAAAAAAAAAAAAAAAAAAAAAAAAAAAAAAAAAAAAAAAAAAAAAAAAAAAAAAAAAAAAAAAAAAAAAAAAAAAAAAAAAAAAAAAAAAAAAAAAAAAAAAAAAAAAAAAAAAAAAAAAAAAAAAAAAAAAAAAAAAAAAAAAAAAAAAAAAAAAAAAAAAAAAAAAAAAAAAAAAAAAAAAAAAAAAAAAAAAAAAAAAAAAAAAAAAAAAAAAAAAAAAAAAAAAAAAAAAAAAAAAAAAAAAAAAAAAAAAAAAAAAAAAAAAAAAAAAAAAAAAAAAAAAAAAAAAAAAAAAAAAAAAAAAAAAAAAAAAAAAAAAAAAAAAAAAAAAAAAAAAAAAAAAAAAAAAAAAAAAAAAAAAAAAAAAAAAAAAAAAAAAAAAAAAAAAAAAAAAAAAAAAAAAAAAAAAAAAAAAAAAAAAAAAAAAAAAAAAAAAAAAAAAAAAAAAAAAAAAAAAAAAAAAAAAAAAAAAAAAAAAAAAAAAAAAAAAAAAAAAAAAAAAAAAAAAAAAAAAAAAAAAAAAAAAAAAAAAAAAAAAAAAAAAAAAAAAAAAAAAAAAAAAAAAAAAAAAAAAAAAAAAAAAAAAAAAAAAAAAAAAAAAAAAAAAAAAAAAAAAAAAAAAAAAAAAAAAAAAAAAAAAAAAAAAAAAAAAAAAAAAAAAAAAAAAAAAAAAAAAAAAAAAAAAAAAAAAAAAAAAAAAAAAAAAAAAAAAAAAAAAAAAAAAAAAAAAAAAAAAAAAAAAAAAAAAAAAAAAAAAAAAAAAAAAAAAAAAAAAAAAAAAAAAAAAAAAAAAAAAAAAAAAAAAAAAAAAAAAAAAAAAAAAAAAAAAAAAAAAAAAAAAAAAAAAAAAAAAAAAAAAAAAAAAAAAAAAAAAAAAAAAAAAAAAAAAAAAAAAAAAAAAAAAAAAAAAAAAAAAAAAAAAAAAAAAAAAAAAAAAAAAAAAAAAAAAAAAAAAAAAAAAAAAAAAAAAAAAAAAAAAAAAAAAAAAAAAAAAAAAAAAAAAAAAAAAAAAAAAAAAAAAAAAAAAAAAAAAAAAAAAAAAAAAAAAAAAAAAAAAAAAAAAAAAAAAAAAAAAAAAAAAAAAAAAAAAAAAAAAAAAAAAAAAAAAAAAAAAAAAAAAAAAAAAAAAAAAAAAAAAAAAAAAAAAAAAAAAAAAAAAAAAAAAAAAAAAAAAAAAAAAAAAAAAAAAAAAAAAAAAAAAAAAAAAAAAAAAAAAAAAAAAAAAAAAAAAAAAAAAAAAAAAAAAAAAAAAAAAAAAAAAAAAAAAAAAAAAAAAAAAAAAAAAAAAAAAAAAAAAAAAAAAAAAAAAAAAAAAAAAAAAAAAAAAAAAAAAAAAAAAAAAAAAAAAAAAAAAAAAAAAAAAAAAAAAAAAAAAAAAAAAAAAAAAAAAAAAAAAAAAAAAAAAAAAAAAAAAAAAAAAAAAAAAAAAAAAAAAAAAAAAAAAAAAAAAAAAAAAAAAAAAAAAAAAAAAAAAAAAAAAAAAAAAAAAAAAAAAAAAAAAAAAAAAAAAAAAAAAAAAAAAAAAAAAAAAAAAAAAAAAAAAAAAAAAAAAAAAAAAAAAAAAAAAAAAAAAAAAAAAAAAAAAAAAAAAAAAAAAAAAAAAAAAAAAAAAAAAAAAAAAAAAAAAAAAAAAAAAAAAAAAAAAAAAAAAAAAAAAAAAAAAAAAAAAAAAAAAAAAAAAAAAAAAAAAAAAAAAAAAAAAAAAAAAAAAAAAAAAAAAAAAAAAAAAAAAAAAAAAAAAAAAAAAAAAAAAAAAAAAAAAAAAAAAAAAAAAAAAAAAAAAAAAAAAAAAAAAAAAAAAAAAAAAAAAAAAAAAAAAAAAAAAAAAAAAAAAAAAAAAAAAAAAAAAAAAAAAAAAAAAAAAAAAAAAAAAAAAAAAAAAAAAAAAAAAAAAAAAAAAAAAAAAAAAAAAAAAAAAAAAAAAAAAAAAAAAAAAAAAAAAAAAAAAAAAAAAAAAAAAAAAAAAAAAAAAAAAAAAAAAAAAAAAAAAAAAAAAAAAAAAAAAAAAAAAAAAAAAAAAAAAAAAAAAAAAAAAAAAAAAAAAAAAAAAAAAAAAAAAAAAAAAAAAAAAAAAAAAAAAAAAAAAAAAAAAAAAAAAAAAAAAAAAAAAAAAAAAAAAAAAAAAAAAAAAAAAAAAAAAAAAAAAAAAAAAAAAAAAAAAAAAAAAAAAAAAAAAAAAAAAAAAAAAAAAAAAAAAAAAAAAAAAAAAAAAAAAAAAAAAAAAAAAAAAAAAAAAAAAAAAAAAAAAAAAAAAAAAAAAAAAAAAAAAAAAAAAAAAAAAAAAAAAAAAAAAAAAAAAAAAAAAAAAAAAAAAAAAAAAAAAAAAAAAAAAAAAAAAAAAAAAAAAAAAAAAAAAAAAAAAAAAAAAAAAAAAAAAAAAAAAAAAAAAAAAAAAAAAAAAAAAAAAAAAAAAAAAAAAAAAAAAAAAAAAAAAAAAAAAAAAAAAAAAAAAAAAAAAAAAAAAAAAAAAAAAAAAAAAAAAAAAAAAAAAAAAAAAAAAAAAAAAAAAAAAAAAAAAAAAAAAAAAAAAAAAAAAAAAAAAAAAAAAAAAAAAAAAAAAAAAAAAAAAAAAAAAAAAAAAAAAAAAAAAAAAAAAAAAAAAAAAAAAAAAAAAAAAAAAAAAAAAAAAAAAAAAAAAAAAAAAAAAAAAAAAAAAAAAAAAAAAAAAAAAAAAAAAAAAAAAAAAAAAAAAAAAAAAAAAAAAAAAAAAAAAAAAAAAAAAAAAAAAAAAAAAAAAAAAAAAAAAAAAAAAAAAAAAAAAAAAAAAAAAAAAAAAAAAAAAAAAAAAAAAAAAAAAAAAAAAAAAAAAAAAAAAAAAAAAAAAAAAAAAAAAAAAAAAAAAAAAAAAAAAAAAAAAAAAAAAAAAAAAAAAAAAAAAAAAAAAAAAAAAAAAAAAAAAAAAAAAAAAAAAAAAAAAAAAAAAAAAAAAAAAAAAAAAAAAAAAAAAAAAAAAAAAAAAAAAAAAAAAAAAAAAAAAAAAAAAAAAAAAAAAAAAAAAAAAAAAAAAAAAAAAAAAAAAAAAAAAAAAAAAAAAAAAAAAAAAAAAAAAAAAAAAAAAAAAAAAAAAAAAAAAAAAAAAAAAAAAAAAAAAAAAAAAAAAAAAAAAAAAAAAAAAAAAAAAAAAAAAAAAAAAAAAAAAAAAAAAAAAAAAAAAAAAAAAAAAAAAAAAAAAAAAAAAAAAAAAAAAAAAAAAAAAAAAAAAAAAAAAAAAAAAAAAAAAAAAAAAAAAAAAAAAAAAAAAAAAAAAAAAAAAAAAAAAAAAAAAAAAAAAAAAAAAAAAAAAAAAAAAAAAAAAAAAAAAAAAAAAAAAAAAAAAAAAAAAAAAAAAAAAAAAAAAAAAAAAAAAAAAAAAAAAAAAAAAAAAAAAAAAAAAAAAAAAAAAAAAAAAAAAAAAAAAAAAAAAAAAAAAAAAAAAAAAAAAAAAAAAAAAAAAAAAAAAAAAAAAAAAAAAAAAAAAAAAAAAAAAAAAAAAAAAAAAAAAAAAAAAAAAAAAAAAAAAAAAAAAAAAAAAAAAAAAAAAAAAAAAAAAAAAAAAAAAAAAAAAAAAAAAAAAAAAAAAAAAAAAAAAAAAAAAAAAAAAAAAAAAAAAAAAAAAAAAAAAAAAAAAAAAAAAAAAAAAAAAAAAAAAAAAAAAAAAAAAAAAAAAAAAAAAAAAAAAAAAAAAAAAAAAAAAAAAAAAAAAAAAAAAAAAAAAAAAAAAAAAAAAAAAAAAAAAAAAAAAAAAAAAAAAAAAAAAAAAAAAAAAAAAAAAAAAAAAAAAAAAAAAAAAAAAAAAAAAAAAAAAAAAAAAAAAAAAAAAAAAAAAAAAAAAAAAAAAAAAAAAAAAAAAAAAAAAAAAAAAAAAAAAAAAAAAAAAAAAAAAAAAAAAAAAAAAAAAAAAAAAAAAAAAAAAAAAAAAAAAAAAAAAAAAAAAAAAAAAAAAAAAAAAAAAAAAAAAAAAAAAAAAAAAAAAAAAAAAAAAAAAAAAAAAAAAAAAAAAAAAAAAAAAAAAAAAAAAAAAAAAAAAAAAAAAAAAAAAAAAAAAAAAAAAAAAAAAAAAAAAAAAAAAAAAAAAAAAAAAAAAAAAAAAAAAAAPZYQLAvh6XZkLNR3njH9xw4UGYISVB4N3l87QqMvyYl7/sSOs0rSmWtFjXRf4FjqZUzpg4VdFvBxOXTTTuust/D4J0=</c2pa:manifest></metadata>
<defs>
<g>
<g id="glyph-0-0">
<path d="M 7.625 -8.65625 C 7.625 -10.40625 7.078125 -12.109375 5.65625 -12.109375 C 3.25 -12.109375 0.6875 -7.078125 0.6875 -3.28125 C 0.6875 -2.5 0.859375 0.171875 2.671875 0.171875 C 5 0.171875 7.625 -4.75 7.625 -8.65625 Z M 2.40625 -6.234375 C 2.671875 -7.25 3.03125 -8.6875 3.71875 -9.90625 C 4.28125 -10.9375 4.890625 -11.765625 5.640625 -11.765625 C 6.203125 -11.765625 6.59375 -11.28125 6.59375 -9.640625 C 6.59375 -9.015625 6.53125 -8.15625 6.03125 -6.234375 Z M 5.921875 -5.71875 C 5.484375 -4.03125 5.125 -2.9375 4.5 -1.859375 C 4.015625 -0.984375 3.40625 -0.171875 2.6875 -0.171875 C 2.15625 -0.171875 1.71875 -0.578125 1.71875 -2.28125 C 1.71875 -3.40625 2 -4.578125 2.265625 -5.71875 Z M 5.921875 -5.71875 "/>
</g>
<g id="glyph-0-1">
<path d="M 3.546875 -5.046875 C 3.578125 -5.140625 4.015625 -6 4.640625 -6.546875 C 5.09375 -6.96875 5.671875 -7.25 6.34375 -7.25 C 7.03125 -7.25 7.28125 -6.71875 7.28125 -6.03125 C 7.28125 -5.9375 7.28125 -5.59375 7.078125 -4.78125 L 6.640625 -3.015625 C 6.5 -2.5 6.171875 -1.21875 6.140625 -1.03125 C 6.078125 -0.78125 5.96875 -0.328125 5.96875 -0.265625 C 5.96875 -0.015625 6.15625 0.171875 6.421875 0.171875 C 6.9375 0.171875 7.015625 -0.21875 7.171875 -0.84375 L 8.203125 -4.953125 C 8.234375 -5.09375 9.140625 -7.25 11.03125 -7.25 C 11.71875 -7.25 11.953125 -6.71875 11.953125 -6.03125 C 11.953125 -5.078125 11.28125 -3.203125 10.90625 -2.171875 C 10.75 -1.75 10.671875 -1.53125 10.671875 -1.21875 C 10.671875 -0.453125 11.203125 0.171875 12.03125 0.171875 C 13.625 0.171875 14.234375 -2.359375 14.234375 -2.453125 C 14.234375 -2.546875 14.15625 -2.609375 14.0625 -2.609375 C 13.90625 -2.609375 13.890625 -2.5625 13.796875 -2.265625 C 13.40625 -0.890625 12.765625 -0.171875 12.078125 -0.171875 C 11.90625 -0.171875 11.625 -0.1875 11.625 -0.734375 C 11.625 -1.1875 11.828125 -1.734375 11.90625 -1.921875 C 12.21875 -2.75 12.984375 -4.78125 12.984375 -5.78125 C 12.984375 -6.8125 12.390625 -7.59375 11.078125 -7.59375 C 9.921875 -7.59375 9 -6.9375 8.3125 -5.921875 C 8.25 -6.84375 7.6875 -7.59375 6.40625 -7.59375 C 4.875 -7.59375 4.0625 -6.5 3.75 -6.078125 C 3.703125 -7.046875 3 -7.59375 2.234375 -7.59375 C 1.734375 -7.59375 1.34375 -7.34375 1.015625 -6.6875 C 0.703125 -6.078125 0.46875 -5.015625 0.46875 -4.953125 C 0.46875 -4.890625 0.53125 -4.796875 0.65625 -4.796875 C 0.796875 -4.796875 0.8125 -4.8125 0.90625 -5.21875 C 1.171875 -6.234375 1.5 -7.25 2.1875 -7.25 C 2.578125 -7.25 2.71875 -6.96875 2.71875 -6.453125 C 2.71875 -6.078125 2.546875 -5.40625 2.421875 -4.875 L 1.9375 -3.015625 C 1.875 -2.6875 1.6875 -1.90625 1.59375 -1.59375 C 1.484375 -1.15625 1.296875 -0.34375 1.296875 -0.265625 C 1.296875 -0.015625 1.484375 0.171875 1.734375 0.171875 C 1.9375 0.171875 2.1875 0.0625 2.328125 -0.1875 C 2.359375 -0.28125 2.515625 -0.875 2.59375 -1.21875 L 2.96875 -2.765625 Z M 3.546875 -5.046875 "/>
</g>
<g id="glyph-0-2">
<path d="M 5.171875 -2.046875 C 5.09375 -1.75 5.09375 -1.71875 4.84375 -1.390625 C 4.46875 -0.90625 3.71875 -0.171875 2.90625 -0.171875 C 2.203125 -0.171875 1.8125 -0.8125 1.8125 -1.828125 C 1.8125 -2.765625 2.34375 -4.703125 2.671875 -5.421875 C 3.25 -6.625 4.0625 -7.25 4.734375 -7.25 C 5.859375 -7.25 6.09375 -5.828125 6.09375 -5.6875 C 6.09375 -5.671875 6.03125 -5.453125 6.015625 -5.421875 Z M 6.28125 -6.453125 C 6.09375 -6.90625 5.625 -7.59375 4.734375 -7.59375 C 2.78125 -7.59375 0.6875 -5.078125 0.6875 -2.53125 C 0.6875 -0.828125 1.6875 0.171875 2.859375 0.171875 C 3.796875 0.171875 4.609375 -0.5625 5.09375 -1.140625 C 5.265625 -0.125 6.078125 0.171875 6.59375 0.171875 C 7.109375 0.171875 7.515625 -0.140625 7.828125 -0.75 C 8.109375 -1.34375 8.34375 -2.390625 8.34375 -2.453125 C 8.34375 -2.546875 8.28125 -2.609375 8.171875 -2.609375 C 8.015625 -2.609375 8 -2.53125 7.9375 -2.265625 C 7.671875 -1.25 7.34375 -0.171875 6.640625 -0.171875 C 6.140625 -0.171875 6.109375 -0.625 6.109375 -0.96875 C 6.109375 -1.359375 6.15625 -1.546875 6.3125 -2.21875 C 6.4375 -2.65625 6.515625 -3.03125 6.65625 -3.53125 C 7.296875 -6.109375 7.453125 -6.71875 7.453125 -6.828125 C 7.453125 -7.078125 7.265625 -7.265625 7 -7.265625 C 6.453125 -7.265625 6.3125 -6.65625 6.28125 -6.453125 Z M 6.28125 -6.453125 "/>
</g>
<g id="glyph-1-0">
<path d="M 11.0625 -5.515625 C 11.3125 -5.515625 11.578125 -5.515625 11.578125 -5.8125 C 11.578125 -6.125 11.28125 -6.125 11 -6.125 L 1.375 -6.125 C 1.078125 -6.125 0.796875 -6.125 0.796875 -5.8125 C 0.796875 -5.515625 1.046875 -5.515625 1.3125 -5.515625 Z M 11 -2.453125 C 11.28125 -2.453125 11.578125 -2.453125 11.578125 -2.765625 C 11.578125 -3.0625 11.3125 -3.0625 11.0625 -3.0625 L 1.3125 -3.0625 C 1.046875 -3.0625 0.796875 -3.0625 0.796875 -2.765625 C 0.796875 -2.453125 1.078125 -2.453125 1.375 -2.453125 Z M 11 -2.453125 "/>
</g>
<g id="glyph-1-1">
<path d="M 3.625 -3.875 C 3.625 -5.484375 4.453125 -6.921875 5.6875 -7.890625 C 6.015625 -8.140625 6.625 -8.625 6.625 -9.703125 C 6.625 -11.09375 5.578125 -12.078125 3.546875 -12.078125 C 1.828125 -12.078125 0.796875 -10.890625 0.796875 -9.75 C 0.796875 -9.078125 1.359375 -9.078125 1.40625 -9.078125 C 1.59375 -9.078125 2.03125 -9.203125 2.03125 -9.703125 C 2.03125 -10.125 1.703125 -10.328125 1.40625 -10.328125 C 1.34375 -10.328125 1.25 -10.296875 1.203125 -10.28125 C 1.5625 -11.375 2.59375 -11.796875 3.515625 -11.796875 C 5.5 -11.796875 5.515625 -10.421875 5.515625 -9.78125 C 5.515625 -8.734375 5.203125 -8.375 4.875 -8.03125 C 3.734375 -6.8125 3.3125 -5.203125 3.3125 -3.9375 L 3.3125 -3.265625 C 3.3125 -2.96875 3.3125 -2.90625 3.46875 -2.90625 C 3.625 -2.90625 3.625 -2.96875 3.625 -3.265625 Z M 4.1875 -0.703125 C 4.1875 -1.078125 3.875 -1.40625 3.46875 -1.40625 C 3.09375 -1.40625 2.765625 -1.09375 2.765625 -0.703125 C 2.765625 -0.328125 3.078125 0 3.46875 0 C 3.859375 0 4.1875 -0.3125 4.1875 -0.703125 Z M 4.1875 -0.703125 "/>
</g>
</g>
<clipPath id="clip-0">
<path clip-rule="nonzero" d="M 0.234375 0 L 551.746094 0 L 551.746094 264.539062 L 0.234375 264.539062 Z M 0.234375 0 "/>
</clipPath>
<clipPath id="clip-1">
<path clip-rule="nonzero" d="M 0.234375 0 L 551.746094 0 L 551.746094 264.539062 L 0.234375 264.539062 Z M 0.234375 0 "/>
</clipPath>
</defs>
<g clip-path="url(#clip-0)">
<path fill-rule="nonzero" fill="rgb(100%, 100%, 100%)" fill-opacity="1" d="M 0.234375 264.539062 L 551.746094 264.539062 L 551.746094 0 L 0.234375 0 Z M 0.234375 264.539062 "/>
</g>
<path fill-rule="nonzero" fill="rgb(89.99939%, 89.99939%, 89.99939%)" fill-opacity="1" d="M 11.914062 256.175781 L 543.390625 256.175781 L 11.914062 8.359375 Z M 11.914062 256.175781 "/>
<g clip-path="url(#clip-1)">
<path fill="none" stroke-width="0.79701" stroke-linecap="butt" stroke-linejoin="miter" stroke="rgb(0%, 0%, 0%)" stroke-opacity="1" stroke-miterlimit="10" d="M -0.00083763 0.000715978 L 531.939416 0.000715978 L -0.00083763 248.033332 Z M -0.00083763 0.000715978 " transform="matrix(0.999128, 0, 0, -0.999128, 11.914899, 256.176497)"/>
</g>
<g fill="rgb(0%, 0%, 0%)" fill-opacity="1">
<use xlink:href="#glyph-0-0" x="416.330064" y="237.630677"/>
</g>
<g fill="rgb(0%, 0%, 0%)" fill-opacity="1">
<use xlink:href="#glyph-1-0" x="429.42364" y="237.630677"/>
<use xlink:href="#glyph-1-1" x="441.804483" y="237.630677"/>
</g>
<path fill="none" stroke-width="0.3985" stroke-linecap="butt" stroke-linejoin="miter" stroke="rgb(0%, 0%, 0%)" stroke-opacity="1" stroke-miterlimit="10" d="M 446.896534 0.000715978 C 446.896534 12.41388 449.621566 24.690207 454.864418 35.942202 " transform="matrix(0.999128, 0, 0, -0.999128, 11.914899, 256.176497)"/>
<path fill-rule="nonzero" fill="rgb(69.999695%, 100%, 69.999695%)" fill-opacity="1" stroke-width="0.79701" stroke-linecap="butt" stroke-linejoin="miter" stroke="rgb(0%, 0%, 0%)" stroke-opacity="1" stroke-miterlimit="10" d="M 227.43179 141.987767 L 254.388882 199.792061 L 331.459971 163.850575 L 304.506789 106.046281 Z M 227.43179 141.987767 " transform="matrix(0.999128, 0, 0, -0.999128, 11.914899, 256.176497)"/>
<g fill="rgb(0%, 0%, 0%)" fill-opacity="1">
<use xlink:href="#glyph-0-1" x="283.749735" y="107.094564"/>
</g>
<path fill="none" stroke-width="1.49442" stroke-linecap="butt" stroke-linejoin="miter" stroke="rgb(100%, 0%, 0%)" stroke-opacity="1" stroke-miterlimit="10" d="M 320.747508 207.943698 L 394.522755 173.542617 " transform="matrix(0.999128, 0, 0, -0.999128, 11.914899, 256.176497)"/>
<path fill-rule="nonzero" fill="rgb(100%, 0%, 0%)" fill-opacity="1" d="M 409.386719 84.320312 L 405.34375 79.230469 L 406.09375 82.785156 L 402.890625 84.5 "/>
<g fill="rgb(0%, 0%, 0%)" fill-opacity="1">
<use xlink:href="#glyph-0-2" x="412.898058" y="80.8065"/>
</g>
</svg>
