<?xml version="1.0" encoding="UTF-8"?>
<svg xmlns="http://www.w3.org/2000/svg" xmlns:xlink="http://www.w3.org/1999/xlink" width="105.679" height="296.341" viewBox="0 0 105.679 296.341" xmlns:c2pa="http://c2pa.org/manifest"><metadata><c2pa:manifest>AAAWgmp1bWIAAAAeanVtZGMycGEAEQAQgAAAqgA4m3EDYzJwYQAAABZcanVtYgAAAEdqdW1kYzJtYQARABCAAACqADibcQN1cm46YzJwYToyOThmYTYwNi1hMmExLTQ3YzQtYWIyMC01YzBkZGNmZTI3MTMAAAADl2p1bWIAAAApanVtZGMyYXMAEQAQgAAAqgA4m3EDYzJwYS5hc3NlcnRpb25zAAAAALxqdW1iAAAARGp1bWRjYm9yABEAEIAAAKoAOJtxE2MycGEuaW5ncmVkaWVudC52MwAAAAAYYzJzaGhu7ilkAClkD1AMMXah/EwAAABwY2JvcqNpZGM6Zm9ybWF0bWltYWdlL3N2Zyt4bWxqaW5zdGFuY2VJRHgseG1wOmlpZDpkMmVjMGMxZC04MjI3LTRmZDktYjkyYS0xNWMyZTU4YzU0ZTNscmVsYXRpb25zaGlwaHBhcmVudE9mAAAB4mp1bWIAAABBanVtZGNib3IAEQAQgAAAqgA4m3ETYzJwYS5hY3Rpb25zLnYyAAAAABhjMnNozVDW7DOg9jbe0RTk91ogHgAAAZljYm9yomdhY3Rpb25zgqJmYWN0aW9ua2MycGEub3BlbmVkanBhcmFtZXRlcnOha2luZ3JlZGllbnRzgaJjdXJseC1zZWxmI2p1bWJmPWMycGEuYXNzZXJ0aW9ucy9jMnBhLmluZ3JlZGllbnQudjNkaGFzaFggU/7vR5zTYm6DAmc2EpCROImFUdQ1jWY3nKsQPDbDmICkZmFjdGlvbngdY29tLmFudGhyb3BpYy5jbGF1ZGUucHJvdmlkZWRqcGFyYW1ldGVyc6F4H2NvbS5hbnRocm9waWMub3JpZ2luLWNvbmZpZGVuY2VndW5rbm93bmtkZXNjcmlwdGlvbnhmQ2xhdWRlIHByb3ZpZGVkIHRoaXMgZmlsZSBhdCB0aGUgcmVxdWVzdCBvZiBhIHVzZXIgYW5kIG1heSBoYXZlIGNyZWF0ZWQgb3IgbW9kaWZpZWQgdGhlIGZpbGUgY29udGVudHMubXNvZnR3YXJlQWdlbnShZG5hbWVmQ2xhdWRlcmFsbEFjdGlvbnNJbmNsdWRlZPUAAADIanVtYgAAAEBqdW1kY2JvcgARABCAAACqADibcRNjMnBhLmhhc2guZGF0YQAAAAAYYzJzaGFkSn4ODPd7OjhjGUVw0kQAAACAY2JvcqVjYWxnZnNoYTI1NmNwYWRNAAAAAAAAAAAAAAAAAGRoYXNoWCDpa88QSfrF/WYBdwH2CxkIc88Rc9aNeiGRjFn2FDNI+mRuYW1lbmp1bWJmIG1hbmlmZXN0amV4Y2x1c2lvbnOBomVzdGFydBj4Zmxlbmd0aBkeBAAAAj5qdW1iAAAAJ2p1bWRjMmNsABEAEIAAAKoAOJtxA2MycGEuY2xhaW0udjIAAAACD2Nib3KlY2FsZ2ZzaGEyNTZpc2lnbmF0dXJleE1zZWxmI2p1bWJmPS9jMnBhL3VybjpjMnBhOjI5OGZhNjA2LWEyYTEtNDdjNC1hYjIwLTVjMGRkY2ZlMjcxMy9jMnBhLnNpZ25hdHVyZWppbnN0YW5jZUlEeCx4bXA6aWlkOmU1YzVlZDk3LTBlYTMtNDBmMy1hMDdjLWZiNDI2MjVlM2U1ZXJjcmVhdGVkX2Fzc2VydGlvbnODomN1cmx4LXNlbGYjanVtYmY9YzJwYS5hc3NlcnRpb25zL2MycGEuaW5ncmVkaWVudC52M2RoYXNoWCBT/u9HnNNiboMCZzYSkJE4iYVR1DWNZjecqxA8NsOYgKJjdXJseCpzZWxmI2p1bWJmPWMycGEuYXNzZXJ0aW9ucy9jMnBhLmFjdGlvbnMudjJkaGFzaFgg4KkgFwZKt16zHnCxeNUkszk4/qP1faF8eCh7z0ECUYSiY3VybHgpc2VsZiNqdW1iZj1jMnBhLmFzc2VydGlvbnMvYzJwYS5oYXNoLmRhdGFkaGFzaFggV3CMLSabnjII8Zczfl/Ln1Snl052SDOajO4vVMeZYvh0Y2xhaW1fZ2VuZXJhdG9yX2luZm+jZG5hbWVvQW50aHJvcGljIEZpbGVzZ3ZlcnNpb25lMS4wLjBrc3BlY1ZlcnNpb25lMi40LjAAABA4anVtYgAAAChqdW1kYzJjcwARABCAAACqADibcQNjMnBhLnNpZ25hdHVyZQAAABAIY2JvctKEWQISogEmGCFZAgowggIGMIIBjaADAgECAhRA5aAK7sI50L64g/oGQgU9Z1UTADAKBggqhkjOPQQDAzBJMRcwFQYDVQQKEw5BbnRocm9waWMsIFBCQzEuMCwGA1UEAxMlQW50aHJvcGljIENvbnRlbnQgQ3JlZGVudGlhbHMgUm9vdCBDQTAeFw0yNjA4MDcxODQzNTZaFw0yODA4MDYxOTQzNTZaMEQxFzAVBgNVBAoTDkFudGhyb3BpYywgUEJDMSkwJwYDVQQDEyBBbnRocm9waWMgQ2xhdWRlIENvbnRlbnQgU2lnbmluZzBZMBMGByqGSM49AgEGCCqGSM49AwEHA0IABJh6CmvLUBgFFNU0vUKlOVtE6djd17L5SuwX0LemFisBM3dkd/3cyjxFA3Qo5S46fX0/ihY0VZ7mfb9KF703t5OjWDBWMA4GA1UdDwEB/wQEAwIHgDAVBgNVHSUEDjAMBgorBgEEAYPoXgIBMAwGA1UdEwEB/wQCMAAwHwYDVR0jBBgwFoAUzlHiBIFOZFsj+OPEz5o+nMHXXMIwCgYIKoZIzj0EAwMDZwAwZAIwMXMdFJ4BetLLVY7ORuE9noqbbAZOZn/aArXyTwFAZfKrPzxF2vPoJNf1+UCdg1XGAjBwX1zd9WGqYkqmL5SFqw1QySjr1zJfpJM9+1rdDwSPLMOPOjKuiXjoU/pUUeG9RwmhY3BhZFkNngAAAAAAAAAAAAAAAAAAAAAAAAAAAAAAAAAAAAAAAAAAAAAAAAAAAAAAAAAAAAAAAAAAAAAAAAAAAAAAAAAAAAAAAAAAAAAAAAAAAAAAAAAAAAAAAAAAAAAAAAAAAAAAAAAAAAAAAAAAAAAAAAAAAAAAAAAAAAAAAAAAAAAAAAAAAAAAAAAAAAAAAAAAAAAAAAAAAAAAAAAAAAAAAAAAAAAAAAAAAAAAAAAAAAAAAAAAAAAAAAAAAAAAAAAAAAAAAAAAAAAAAAAAAAAAAAAAAAAAAAAAAAAAAAAAAAAAAAAAAAAAAAAAAAAAAAAAAAAAAAAAAAAAAAAAAAAAAAAAAAAAAAAAAAAAAAAAAAAAAAAAAAAAAAAAAAAAAAAAAAAAAAAAAAAAAAAAAAAAAAAAAAAAAAAAAAAAAAAAAAAAAAAAAAAAAAAAAAAAAAAAAAAAAAAAAAAAAAAAAAAAAAAAAAAAAAAAAAAAAAAAAAAAAAAAAAAAAAAAAAAAAAAAAAAAAAAAAAAAAAAAAAAAAAAAAAAAAAAAAAAAAAAAAAAAAAAAAAAAAAAAAAAAAAAAAAAAAAAAAAAAAAAAAAAAAAAAAAAAAAAAAAAAAAAAAAAAAAAAAAAAAAAAAAAAAAAAAAAAAAAAAAAAAAAAAAAAAAAAAAAAAAAAAAAAAAAAAAAAAAAAAAAAAAAAAAAAAAAAAAAAAAAAAAAAAAAAAAAAAAAAAAAAAAAAAAAAAAAAAAAAAAAAAAAAAAAAAAAAAAAAAAAAAAAAAAAAAAAAAAAAAAAAAAAAAAAAAAAAAAAAAAAAAAAAAAAAAAAAAAAAAAAAAAAAAAAAAAAAAAAAAAAAAAAAAAAAAAAAAAAAAAAAAAAAAAAAAAAAAAAAAAAAAAAAAAAAAAAAAAAAAAAAAAAAAAAAAAAAAAAAAAAAAAAAAAAAAAAAAAAAAAAAAAAAAAAAAAAAAAAAAAAAAAAAAAAAAAAAAAAAAAAAAAAAAAAAAAAAAAAAAAAAAAAAAAAAAAAAAAAAAAAAAAAAAAAAAAAAAAAAAAAAAAAAAAAAAAAAAAAAAAAAAAAAAAAAAAAAAAAAAAAAAAAAAAAAAAAAAAAAAAAAAAAAAAAAAAAAAAAAAAAAAAAAAAAAAAAAAAAAAAAAAAAAAAAAAAAAAAAAAAAAAAAAAAAAAAAAAAAAAAAAAAAAAAAAAAAAAAAAAAAAAAAAAAAAAAAAAAAAAAAAAAAAAAAAAAAAAAAAAAAAAAAAAAAAAAAAAAAAAAAAAAAAAAAAAAAAAAAAAAAAAAAAAAAAAAAAAAAAAAAAAAAAAAAAAAAAAAAAAAAAAAAAAAAAAAAAAAAAAAAAAAAAAAAAAAAAAAAAAAAAAAAAAAAAAAAAAAAAAAAAAAAAAAAAAAAAAAAAAAAAAAAAAAAAAAAAAAAAAAAAAAAAAAAAAAAAAAAAAAAAAAAAAAAAAAAAAAAAAAAAAAAAAAAAAAAAAAAAAAAAAAAAAAAAAAAAAAAAAAAAAAAAAAAAAAAAAAAAAAAAAAAAAAAAAAAAAAAAAAAAAAAAAAAAAAAAAAAAAAAAAAAAAAAAAAAAAAAAAAAAAAAAAAAAAAAAAAAAAAAAAAAAAAAAAAAAAAAAAAAAAAAAAAAAAAAAAAAAAAAAAAAAAAAAAAAAAAAAAAAAAAAAAAAAAAAAAAAAAAAAAAAAAAAAAAAAAAAAAAAAAAAAAAAAAAAAAAAAAAAAAAAAAAAAAAAAAAAAAAAAAAAAAAAAAAAAAAAAAAAAAAAAAAAAAAAAAAAAAAAAAAAAAAAAAAAAAAAAAAAAAAAAAAAAAAAAAAAAAAAAAAAAAAAAAAAAAAAAAAAAAAAAAAAAAAAAAAAAAAAAAAAAAAAAAAAAAAAAAAAAAAAAAAAAAAAAAAAAAAAAAAAAAAAAAAAAAAAAAAAAAAAAAAAAAAAAAAAAAAAAAAAAAAAAAAAAAAAAAAAAAAAAAAAAAAAAAAAAAAAAAAAAAAAAAAAAAAAAAAAAAAAAAAAAAAAAAAAAAAAAAAAAAAAAAAAAAAAAAAAAAAAAAAAAAAAAAAAAAAAAAAAAAAAAAAAAAAAAAAAAAAAAAAAAAAAAAAAAAAAAAAAAAAAAAAAAAAAAAAAAAAAAAAAAAAAAAAAAAAAAAAAAAAAAAAAAAAAAAAAAAAAAAAAAAAAAAAAAAAAAAAAAAAAAAAAAAAAAAAAAAAAAAAAAAAAAAAAAAAAAAAAAAAAAAAAAAAAAAAAAAAAAAAAAAAAAAAAAAAAAAAAAAAAAAAAAAAAAAAAAAAAAAAAAAAAAAAAAAAAAAAAAAAAAAAAAAAAAAAAAAAAAAAAAAAAAAAAAAAAAAAAAAAAAAAAAAAAAAAAAAAAAAAAAAAAAAAAAAAAAAAAAAAAAAAAAAAAAAAAAAAAAAAAAAAAAAAAAAAAAAAAAAAAAAAAAAAAAAAAAAAAAAAAAAAAAAAAAAAAAAAAAAAAAAAAAAAAAAAAAAAAAAAAAAAAAAAAAAAAAAAAAAAAAAAAAAAAAAAAAAAAAAAAAAAAAAAAAAAAAAAAAAAAAAAAAAAAAAAAAAAAAAAAAAAAAAAAAAAAAAAAAAAAAAAAAAAAAAAAAAAAAAAAAAAAAAAAAAAAAAAAAAAAAAAAAAAAAAAAAAAAAAAAAAAAAAAAAAAAAAAAAAAAAAAAAAAAAAAAAAAAAAAAAAAAAAAAAAAAAAAAAAAAAAAAAAAAAAAAAAAAAAAAAAAAAAAAAAAAAAAAAAAAAAAAAAAAAAAAAAAAAAAAAAAAAAAAAAAAAAAAAAAAAAAAAAAAAAAAAAAAAAAAAAAAAAAAAAAAAAAAAAAAAAAAAAAAAAAAAAAAAAAAAAAAAAAAAAAAAAAAAAAAAAAAAAAAAAAAAAAAAAAAAAAAAAAAAAAAAAAAAAAAAAAAAAAAAAAAAAAAAAAAAAAAAAAAAAAAAAAAAAAAAAAAAAAAAAAAAAAAAAAAAAAAAAAAAAAAAAAAAAAAAAAAAAAAAAAAAAAAAAAAAAAAAAAAAAAAAAAAAAAAAAAAAAAAAAAAAAAAAAAAAAAAAAAAAAAAAAAAAAAAAAAAAAAAAAAAAAAAAAAAAAAAAAAAAAAAAAAAAAAAAAAAAAAAAAAAAAAAAAAAAAAAAAAAAAAAAAAAAAAAAAAAAAAAAAAAAAAAAAAAAAAAAAAAAAAAAAAAAAAAAAAAAAAAAAAAAAAAAAAAAAAAAAAAAAAAAAAAAAAAAAAAAAAAAAAAAAAAAAAAAAAAAAAAAAAAAAAAAAAAAAAAAAAAAAAAAAAAAAAAAAAAAAAAAAAAAAAAAAAAAAAAAAAAAAAAAAAAAAAAAAAAAAAAAAAAAAAAAAAAAAAAAAAAAAAAAAAAAAAAAAAAAAAAAAAAAAAAAAAAAAAAAAAAAAAAAAAAAAAAAAAAAAAAAAAAAAAAAAAAAAAAAAAAAAAAAAAAAAAAAAAAAAAAAAAAAAAAAAAAAAAAAAAAAAAAAAAAAAAAAAAAAAAAAAAAAAAAAAAAAAAAAAAAAAAAAAAAAAAAAAAAAAAAAAAAAAAAAAAAAAAAAAAAAAAAAAAAAAAAAAAAAAAAAAAAAAAAAAAAAAAAAAAAAAAAAAAAAAAAAAAAAAAAAAAAAAAAAAAAAAAAAAAAAAAAAAAAAAAAAAAAAAAAAAAAAAAAAAAAAAAAAAAAAAAAAAAAAAAAAAAAAAAAAAAAAAAAAAAAAAAAAAAAAAAAAAAAAAAAAAAAAAAAAAAAAAAAAAAAAAAAAAAAAAAAAAAAAAAAAAAAAAAAAAAAAAAAAAAAAAAAAAAAAAAAAAAAAAAAAAAAAAAAAAAAAAAAAAAAAAAAAAAAAAAAAAAAAAAAAAAAAAAAAAAAAAAAAAAAAAAAAAAAAAAAAAAAAAAAAAAAAAAAAAAAAAAAAAAAAAAAAAAAAAAAAAAAAAAAAAAAAAAAAAAAAAAAAAAAAAAAAAAAAAAAAAAAAAAAAAAAAAAAAAAAAAAAAAAAAAAAAAAAAAAAAAAAAAAAAAAAAAAAAAAAAAAAAAAAAAAAAAAAAAAAAAAAAAAAAAAAAAAAAAAAAAAAAAAAAAAAAAAAAAAAAAAAAAAAAAAAAAAAAAAAAAAAAAAAAAAAAAAAAAAAAAAAAAAAAAAAAAAAAAAAAAAAAAAAAAAAAAAAAAAAAAAAAAAAAAAAAAAAAAAAAAAAAAAAAAAAAAAAAAAAAAAAAAAAAAAAAAAAAAAAAAAAAAAAAAAAAAAAAAAAAAAAAAAAAAAAAAAAAAAAAAAAAAAAAAAAAAAAAAAAAAAAAAAAAAAAAAAAAAAAAAAAAAAAAAAAAAAAAAAAAAAAAAAAAAAAAAAAAAAAAAAAAAAAAAAAAAAAAAAAAAAAAAAAAAAAAAAAAAAAAAAAAAAAAAAAAAAAAAAAAAAAAAAAAAAAAAAAAAAAAAAAAAAAAAAAAAAAAAAAAAAAAAAAAAAAAAAAAAAAAAAAAAAAAAAAAAAAAAAAAAAAAAAAAAAAAAAAAAAAAAAAAAAAAAAAAAAAAAAAAAAAAAAAAAAAAAAAAAAAAAAAAAAAAAAAAAAAAAAAAAAAAAAAAAAAAAAAAAAAAAAAAAAAAAAAAAAAAAAAAAAAAAAAAAAAAAAAAAAAAAAAAAAAAAAAAAAAAAAAAAPZYQKfc9galr/R99xLk1I0bY3ZeP9R/r3GOIoicUxC+TfNxocxNS668NW6QdZWxUqw+BZ7zdyaDaSzO6GIFXHhWlzY=</c2pa:manifest></metadata>
<defs>
<g>
<g id="glyph-0-0">
<path d="M 4.515625 1.921875 C 4.046875 2.578125 3.375 3.15625 2.546875 3.15625 C 2.328125 3.15625 1.515625 3.125 1.25 2.328125 C 1.296875 2.34375 1.390625 2.34375 1.421875 2.34375 C 1.9375 2.34375 2.28125 1.90625 2.28125 1.515625 C 2.28125 1.109375 1.953125 0.984375 1.703125 0.984375 C 1.421875 0.984375 0.828125 1.1875 0.828125 2.03125 C 0.828125 2.90625 1.5625 3.5 2.546875 3.5 C 4.25 3.5 5.984375 1.921875 6.46875 0.015625 L 8.15625 -6.671875 C 8.171875 -6.765625 8.203125 -6.859375 8.203125 -6.96875 C 8.203125 -7.21875 8 -7.390625 7.734375 -7.390625 C 7.578125 -7.390625 7.21875 -7.328125 7.078125 -6.8125 L 5.8125 -1.765625 C 5.734375 -1.453125 5.734375 -1.421875 5.59375 -1.234375 C 5.25 -0.75 4.6875 -0.171875 3.859375 -0.171875 C 2.90625 -0.171875 2.8125 -1.109375 2.8125 -1.578125 C 2.8125 -2.5625 3.28125 -3.875 3.734375 -5.109375 C 3.921875 -5.609375 4.03125 -5.84375 4.03125 -6.1875 C 4.03125 -6.90625 3.515625 -7.5625 2.671875 -7.5625 C 1.09375 -7.5625 0.46875 -5.078125 0.46875 -4.9375 C 0.46875 -4.875 0.53125 -4.78125 0.65625 -4.78125 C 0.8125 -4.78125 0.828125 -4.859375 0.890625 -5.09375 C 1.296875 -6.53125 1.953125 -7.21875 2.625 -7.21875 C 2.78125 -7.21875 3.078125 -7.21875 3.078125 -6.65625 C 3.078125 -6.203125 2.875 -5.71875 2.625 -5.0625 C 1.78125 -2.8125 1.78125 -2.25 1.78125 -1.828125 C 1.78125 -0.203125 2.953125 0.171875 3.8125 0.171875 C 4.3125 0.171875 4.921875 0.015625 5.53125 -0.625 L 5.546875 -0.59375 C 5.28125 0.40625 5.109375 1.078125 4.515625 1.921875 Z M 4.515625 1.921875 "/>
</g>
<g id="glyph-0-1">
<path d="M 3.53125 -5.03125 C 3.5625 -5.125 4 -5.984375 4.625 -6.53125 C 5.078125 -6.953125 5.65625 -7.21875 6.328125 -7.21875 C 7.015625 -7.21875 7.25 -6.703125 7.25 -6.015625 C 7.25 -5.921875 7.25 -5.578125 7.046875 -4.765625 L 6.625 -3 C 6.484375 -2.484375 6.15625 -1.21875 6.125 -1.03125 C 6.0625 -0.765625 5.953125 -0.328125 5.953125 -0.25 C 5.953125 -0.015625 6.140625 0.171875 6.40625 0.171875 C 6.90625 0.171875 7 -0.21875 7.15625 -0.84375 L 8.1875 -4.9375 C 8.21875 -5.078125 9.109375 -7.21875 11 -7.21875 C 11.6875 -7.21875 11.921875 -6.703125 11.921875 -6.015625 C 11.921875 -5.0625 11.25 -3.1875 10.875 -2.15625 C 10.71875 -1.75 10.640625 -1.53125 10.640625 -1.21875 C 10.640625 -0.453125 11.171875 0.171875 12 0.171875 C 13.59375 0.171875 14.1875 -2.34375 14.1875 -2.453125 C 14.1875 -2.546875 14.125 -2.609375 14.015625 -2.609375 C 13.859375 -2.609375 13.84375 -2.5625 13.765625 -2.265625 C 13.359375 -0.890625 12.734375 -0.171875 12.046875 -0.171875 C 11.875 -0.171875 11.59375 -0.1875 11.59375 -0.734375 C 11.59375 -1.1875 11.796875 -1.734375 11.875 -1.921875 C 12.1875 -2.75 12.953125 -4.765625 12.953125 -5.765625 C 12.953125 -6.796875 12.359375 -7.5625 11.046875 -7.5625 C 9.90625 -7.5625 8.96875 -6.90625 8.28125 -5.90625 C 8.234375 -6.828125 7.671875 -7.5625 6.375 -7.5625 C 4.859375 -7.5625 4.046875 -6.484375 3.734375 -6.0625 C 3.6875 -7.03125 2.984375 -7.5625 2.234375 -7.5625 C 1.734375 -7.5625 1.34375 -7.328125 1.015625 -6.671875 C 0.703125 -6.0625 0.46875 -5.015625 0.46875 -4.9375 C 0.46875 -4.875 0.53125 -4.78125 0.65625 -4.78125 C 0.796875 -4.78125 0.8125 -4.796875 0.90625 -5.203125 C 1.171875 -6.203125 1.5 -7.21875 2.171875 -7.21875 C 2.578125 -7.21875 2.703125 -6.953125 2.703125 -6.4375 C 2.703125 -6.0625 2.546875 -5.390625 2.421875 -4.859375 L 1.9375 -3 C 1.875 -2.671875 1.6875 -1.90625 1.59375 -1.59375 C 1.46875 -1.15625 1.28125 -0.34375 1.28125 -0.25 C 1.28125 -0.015625 1.46875 0.171875 1.734375 0.171875 C 1.9375 0.171875 2.171875 0.0625 2.3125 -0.1875 C 2.34375 -0.28125 2.5 -0.875 2.59375 -1.21875 L 2.96875 -2.765625 Z M 3.53125 -5.03125 "/>
</g>
<g id="glyph-0-2">
<path d="M 5.796875 -2.171875 C 5.734375 -1.90625 5.703125 -1.828125 5.46875 -1.578125 C 4.765625 -0.671875 4.046875 -0.34375 3.515625 -0.34375 C 2.953125 -0.34375 2.421875 -0.796875 2.421875 -1.96875 C 2.421875 -2.875 2.9375 -4.796875 3.3125 -5.578125 C 3.8125 -6.53125 4.578125 -7.21875 5.296875 -7.21875 C 6.4375 -7.21875 6.65625 -5.8125 6.65625 -5.71875 L 6.609375 -5.46875 Z M 6.859375 -6.4375 C 6.640625 -6.9375 6.15625 -7.5625 5.296875 -7.5625 C 3.4375 -7.5625 1.296875 -5.21875 1.296875 -2.65625 C 1.296875 -0.875 2.390625 0 3.484375 0 C 4.390625 0 5.203125 -0.71875 5.5 -1.0625 L 5.125 0.484375 C 4.890625 1.421875 4.78125 1.859375 4.171875 2.453125 C 3.46875 3.15625 2.8125 3.15625 2.4375 3.15625 C 1.921875 3.15625 1.5 3.125 1.0625 2.984375 C 1.609375 2.828125 1.75 2.34375 1.75 2.15625 C 1.75 1.890625 1.546875 1.609375 1.171875 1.609375 C 0.75 1.609375 0.3125 1.953125 0.3125 2.515625 C 0.3125 3.21875 1.015625 3.5 2.46875 3.5 C 4.6875 3.5 5.828125 2.078125 6.0625 1.15625 L 7.953125 -6.53125 C 8.015625 -6.75 8.015625 -6.78125 8.015625 -6.8125 C 8.015625 -7.046875 7.828125 -7.234375 7.5625 -7.234375 C 7.15625 -7.234375 6.90625 -6.890625 6.859375 -6.4375 Z M 6.859375 -6.4375 "/>
</g>
<g id="glyph-0-3">
<path d="M 7.15625 -10.46875 C 7.25 -10.875 7.296875 -11.03125 7.546875 -11.09375 C 7.6875 -11.140625 8.25 -11.140625 8.609375 -11.140625 C 10.328125 -11.140625 11.140625 -11.0625 11.140625 -9.734375 C 11.140625 -9.46875 11.0625 -8.8125 10.96875 -8.1875 L 10.953125 -7.984375 C 10.953125 -7.90625 11.015625 -7.8125 11.125 -7.8125 C 11.28125 -7.8125 11.28125 -7.890625 11.34375 -8.171875 L 11.84375 -11.203125 C 11.875 -11.359375 11.875 -11.390625 11.875 -11.4375 C 11.875 -11.625 11.765625 -11.625 11.421875 -11.625 L 2.046875 -11.625 C 1.640625 -11.625 1.625 -11.609375 1.53125 -11.3125 L 0.484375 -8.21875 C 0.46875 -8.1875 0.40625 -8 0.40625 -7.984375 C 0.40625 -7.890625 0.484375 -7.8125 0.578125 -7.8125 C 0.71875 -7.8125 0.75 -7.875 0.828125 -8.09375 C 1.546875 -10.171875 1.90625 -11.140625 4.1875 -11.140625 L 5.328125 -11.140625 C 5.75 -11.140625 5.921875 -11.140625 5.921875 -10.953125 C 5.921875 -10.890625 5.921875 -10.859375 5.828125 -10.546875 L 3.53125 -1.34375 C 3.359375 -0.671875 3.328125 -0.5 1.515625 -0.5 C 1.078125 -0.5 0.953125 -0.5 0.953125 -0.171875 C 0.953125 0 1.15625 0 1.234375 0 C 1.671875 0 2.109375 -0.03125 2.546875 -0.03125 L 5.21875 -0.03125 C 5.640625 -0.03125 6.109375 0 6.53125 0 C 6.71875 0 6.890625 0 6.890625 -0.328125 C 6.890625 -0.5 6.78125 -0.5 6.328125 -0.5 C 4.78125 -0.5 4.78125 -0.65625 4.78125 -0.90625 C 4.78125 -0.921875 4.78125 -1.046875 4.859375 -1.328125 Z M 7.15625 -10.46875 "/>
</g>
<g id="glyph-0-4">
<path d="M 5.171875 -2.046875 C 5.078125 -1.75 5.078125 -1.71875 4.84375 -1.390625 C 4.453125 -0.90625 3.703125 -0.171875 2.90625 -0.171875 C 2.203125 -0.171875 1.796875 -0.8125 1.796875 -1.8125 C 1.796875 -2.765625 2.328125 -4.6875 2.65625 -5.40625 C 3.25 -6.609375 4.046875 -7.21875 4.71875 -7.21875 C 5.84375 -7.21875 6.078125 -5.8125 6.078125 -5.671875 C 6.078125 -5.65625 6.015625 -5.4375 6 -5.40625 Z M 6.265625 -6.4375 C 6.078125 -6.875 5.609375 -7.5625 4.71875 -7.5625 C 2.78125 -7.5625 0.6875 -5.0625 0.6875 -2.515625 C 0.6875 -0.828125 1.6875 0.171875 2.84375 0.171875 C 3.796875 0.171875 4.59375 -0.5625 5.078125 -1.125 C 5.25 -0.125 6.0625 0.171875 6.578125 0.171875 C 7.078125 0.171875 7.5 -0.140625 7.8125 -0.75 C 8.078125 -1.34375 8.328125 -2.390625 8.328125 -2.453125 C 8.328125 -2.546875 8.25 -2.609375 8.15625 -2.609375 C 8 -2.609375 7.984375 -2.515625 7.90625 -2.265625 C 7.65625 -1.25 7.328125 -0.171875 6.625 -0.171875 C 6.125 -0.171875 6.09375 -0.625 6.09375 -0.953125 C 6.09375 -1.359375 6.140625 -1.546875 6.296875 -2.21875 C 6.421875 -2.640625 6.5 -3.015625 6.640625 -3.515625 C 7.28125 -6.09375 7.421875 -6.703125 7.421875 -6.8125 C 7.421875 -7.046875 7.234375 -7.234375 6.984375 -7.234375 C 6.4375 -7.234375 6.296875 -6.640625 6.265625 -6.4375 Z M 6.265625 -6.4375 "/>
</g>
<g id="glyph-1-0">
<path d="M 4.65625 -4.484375 C 4.4375 -4.484375 4.328125 -4.484375 4.15625 -4.34375 C 4.09375 -4.28125 3.953125 -4.09375 3.953125 -3.90625 C 3.953125 -3.671875 4.140625 -3.53125 4.359375 -3.53125 C 4.65625 -3.53125 4.96875 -3.765625 4.96875 -4.25 C 4.96875 -4.8125 4.421875 -5.25 3.59375 -5.25 C 2.03125 -5.25 0.484375 -3.546875 0.484375 -1.859375 C 0.484375 -0.828125 1.125 0.125 2.34375 0.125 C 3.953125 0.125 4.984375 -1.140625 4.984375 -1.296875 C 4.984375 -1.375 4.90625 -1.4375 4.859375 -1.4375 C 4.828125 -1.4375 4.8125 -1.421875 4.703125 -1.3125 C 3.953125 -0.296875 2.8125 -0.125 2.359375 -0.125 C 1.53125 -0.125 1.28125 -0.828125 1.28125 -1.4375 C 1.28125 -1.84375 1.484375 -3 1.90625 -3.8125 C 2.21875 -4.375 2.859375 -5.015625 3.609375 -5.015625 C 3.765625 -5.015625 4.421875 -5 4.65625 -4.484375 Z M 4.65625 -4.484375 "/>
</g>
</g>
<clipPath id="clip-0">
<path clip-rule="nonzero" d="M 0 0.121094 L 105.359375 0.121094 L 105.359375 295.5625 L 0 295.5625 Z M 0 0.121094 "/>
</clipPath>
</defs>
<g clip-path="url(#clip-0)">
<path fill-rule="nonzero" fill="rgb(100%, 100%, 100%)" fill-opacity="1" d="M 0 295.5625 L 105.359375 295.5625 L 105.359375 0.121094 L 0 0.121094 Z M 0 295.5625 "/>
</g>
<path fill="none" stroke-width="0.79701" stroke-linecap="butt" stroke-linejoin="miter" stroke="rgb(50%, 50%, 50%)" stroke-opacity="1" stroke-dasharray="2.98883 2.98883" stroke-miterlimit="10" d="M 0.00173438 -127.560527 L 0.00173438 132.057706 " transform="matrix(0.996972, 0, 0, -0.996972, 26.248271, 160.048421)"/>
<path fill-rule="nonzero" fill="rgb(50%, 50%, 50%)" fill-opacity="1" d="M 26.25 25.808594 L 24.183594 29.941406 L 26.25 28.390625 L 28.3125 29.941406 "/>
<g fill="rgb(50%, 50%, 50%)" fill-opacity="1">
<use xlink:href="#glyph-0-0" x="21.84365" y="18.766565"/>
</g>
<path fill="none" stroke-width="2.98883" stroke-linecap="butt" stroke-linejoin="miter" stroke="rgb(75%, 50%, 25%)" stroke-opacity="1" stroke-miterlimit="10" d="M 0.00173438 0.00155051 L 0.00173438 -50.816404 " transform="matrix(0.996972, 0, 0, -0.996972, 26.248271, 160.048421)"/>
<path fill-rule="nonzero" fill="rgb(75%, 50%, 25%)" fill-opacity="1" d="M 26.25 216.570312 L 30.9375 207.191406 L 26.25 210.710938 L 21.558594 207.191406 "/>
<g fill="rgb(75%, 50%, 25%)" fill-opacity="1">
<use xlink:href="#glyph-0-1" x="14.566753" y="228.758713"/>
<use xlink:href="#glyph-0-2" x="29.267091" y="228.758713"/>
</g>
<path fill="none" stroke-width="2.98883" stroke-linecap="butt" stroke-linejoin="miter" stroke="rgb(0%, 0%, 100%)" stroke-opacity="1" stroke-miterlimit="10" d="M 0.00173438 0.00155051 L 0.00173438 107.510714 " transform="matrix(0.996972, 0, 0, -0.996972, 26.248271, 160.048421)"/>
<path fill-rule="nonzero" fill="rgb(0%, 0%, 100%)" fill-opacity="1" d="M 26.25 47.003906 L 21.558594 56.378906 L 26.25 52.863281 L 30.9375 56.378906 "/>
<g fill="rgb(0%, 0%, 100%)" fill-opacity="1">
<use xlink:href="#glyph-0-3" x="31.04869" y="42.205369"/>
</g>
<path fill="none" stroke-width="1.49442" stroke-linecap="butt" stroke-linejoin="miter" stroke="rgb(100%, 0%, 0%)" stroke-opacity="1" stroke-miterlimit="10" d="M 49.608991 -35.433884 L 49.608991 31.797056 " transform="matrix(0.996972, 0, 0, -0.996972, 26.248271, 160.048421)"/>
<path fill-rule="nonzero" fill="rgb(100%, 0%, 0%)" fill-opacity="1" d="M 75.707031 124.722656 L 72.804688 130.523438 L 75.707031 128.347656 L 78.605469 130.523438 "/>
<g fill="rgb(100%, 0%, 0%)" fill-opacity="1">
<use xlink:href="#glyph-0-4" x="79.760727" y="127.130409"/>
</g>
<g fill="rgb(100%, 0%, 0%)" fill-opacity="1">
<use xlink:href="#glyph-1-0" x="88.582929" y="129.705587"/>
</g>
</svg>
